<svg id="Слой_3" data-name="Слой 3" xmlns="http://www.w3.org/2000/svg" width="100" height="100" viewBox="0 0 100 100">
  <defs>
    <style>
      .cls-1 {
        fill: #ffffff;
      }
    </style>
  </defs>
  <title>БГТУ_лого_100</title>
  <g>
    <g>
      <path class="cls-1" d="M38.17,92.17l-2.81-.89,0.2-.62,2.24,0.71,0.52-1.63-1-.33A2.64,2.64,0,0,1,36.41,89,1.12,1.12,0,0,1,36,88.31a1.82,1.82,0,0,1,.07-0.93,1.93,1.93,0,0,1,.46-0.78,1.23,1.23,0,0,1,.67-0.38,2.08,2.08,0,0,1,.93.12l1.7,0.54Zm0.92-4.87-1.15-.36a1.07,1.07,0,0,0-.75,0,1,1,0,0,0-.47.63,1.06,1.06,0,0,0,0,.6,0.69,0.69,0,0,0,.28.4,3.22,3.22,0,0,0,.78.32l0.77,0.24Z"/>
      <path class="cls-1" d="M35.76,85.52l-2.28,5.06-1.56-.7a2.79,2.79,0,0,1-.77-0.46,1.21,1.21,0,0,1-.35-0.74,1.82,1.82,0,0,1,.18-1,1.88,1.88,0,0,1,.85-1,1.61,1.61,0,0,1,1.4.11l1.06,0.48,0.93-2.06ZM34,87.93l-1.07-.48a1.13,1.13,0,0,0-.85-0.1,1,1,0,0,0-.55.59,1.16,1.16,0,0,0-.12.57,0.72,0.72,0,0,0,.15.42,1.62,1.62,0,0,0,.55.34l1.06,0.48Z"/>
      <path class="cls-1" d="M29.21,82.12l-1.27,2.11,0.6,0.36a1.09,1.09,0,0,0,.45.17,1,1,0,0,0,.46-0.09,7.26,7.26,0,0,0,.93-0.51l1.12-.68,0.65,0.39-1.46.88a3.82,3.82,0,0,1-.77.36,1.51,1.51,0,0,1-.49.07,1.41,1.41,0,0,1,.31,2,1.77,1.77,0,0,1-.6.62,1.18,1.18,0,0,1-.69.19,2.13,2.13,0,0,1-.88-0.35l-1.73-1,2.86-4.75Zm-2.54,4.23,1.23,0.74a1,1,0,0,0,.75.17,0.88,0.88,0,0,0,.55-0.44,1,1,0,0,0,.15-0.5,0.79,0.79,0,0,0-.13-0.45,1.57,1.57,0,0,0-.5-0.42l-1.11-.67Z"/>
      <path class="cls-1" d="M27.77,81.17l-3.42,4.36-0.47-.37,1.4-1.79-1.86-1.46L22,83.7l-0.47-.37L25,79l0.47,0.37L23.82,81.4l1.86,1.46L27.3,80.8Z"/>
      <path class="cls-1" d="M20.42,77.26l-0.3-.56a2.57,2.57,0,0,1,1.48-.48,1.74,1.74,0,0,1,1.19.54,1.85,1.85,0,0,1,.54,1A2.16,2.16,0,0,1,23.15,79a4.13,4.13,0,0,1-.94,1.33,3.75,3.75,0,0,1-1.3.89,2.18,2.18,0,0,1-1.22.13,1.92,1.92,0,0,1-1-.55,1.67,1.67,0,0,1-.51-1.09,2.21,2.21,0,0,1,.39-1.32l0.54,0.3a1.27,1.27,0,0,0,0,1.68,1.34,1.34,0,0,0,.72.4,1.57,1.57,0,0,0,.89-0.13,3.34,3.34,0,0,0,1-.74,3,3,0,0,0,.93-1.49,1.25,1.25,0,0,0-.35-1.16,1.17,1.17,0,0,0-.85-0.36A1.87,1.87,0,0,0,20.42,77.26Z"/>
      <path class="cls-1" d="M16.43,78.19l-0.37-.47L18,76.21a0.73,0.73,0,0,0-.51-0.33,3.58,3.58,0,0,0-1,.25,5.54,5.54,0,0,1-.85.24,1,1,0,0,1-.51-0.06,1.22,1.22,0,0,1-.48-0.4l-0.13-.18,0.5-.4,0.07,0.1,0.08,0.11a0.54,0.54,0,0,0,.36.22,2.3,2.3,0,0,0,.81-0.2,3.15,3.15,0,0,1,.92-0.25,1.14,1.14,0,0,1,.48.12,1.86,1.86,0,0,1,.24-1.3l0.87-1.88,0.46,0.58-0.71,1.53a3.39,3.39,0,0,0-.35,1,0.66,0.66,0,0,0,.12.46l0,0,2-1.61,0.37,0.47Z"/>
      <path class="cls-1" d="M13.71,74.63l-0.29-.46,3.73-2.33-5,.27-0.32-.51,4.71-2.93,0.29,0.46-3.73,2.32,5-.27,0.32,0.51Z"/>
      <path class="cls-1" d="M8.72,68.39L8.56,68a1.18,1.18,0,0,1,.79,0,0.91,0.91,0,0,1,.52,1.13,1.16,1.16,0,0,1-.54.57l-0.16-.35a0.51,0.51,0,0,0,.25-0.69,0.53,0.53,0,0,0-.27-0.29A0.67,0.67,0,0,0,8.72,68.39ZM11,70l-0.23-.49,4-1.85-5-.35-0.25-.55,5-2.33,0.23,0.5-4,1.85,5,0.35L16,67.67Z"/>
      <path class="cls-1" d="M7,58.44L6.52,55.72l0.64-.11,0.36,2.13,4.83-.81,0.1,0.59Z"/>
      <path class="cls-1" d="M9.18,54.33A3.37,3.37,0,0,1,7,53.82a1.94,1.94,0,0,1-.84-1.52,1.91,1.91,0,0,1,.29-1.11,2.29,2.29,0,0,1,1-.83A3.75,3.75,0,0,1,8.9,50a3.35,3.35,0,0,1,2,.46,1.94,1.94,0,0,1,.13,3.23A3.27,3.27,0,0,1,9.18,54.33Zm0-.62a2.49,2.49,0,0,0,1.57-.53A1.36,1.36,0,0,0,10.62,51a2.68,2.68,0,0,0-1.7-.37,3.34,3.34,0,0,0-1.27.29,1.57,1.57,0,0,0-.67.57,1.29,1.29,0,0,0-.22.79,1.37,1.37,0,0,0,.62,1.09A2.86,2.86,0,0,0,9.16,53.71Z"/>
      <path class="cls-1" d="M10,45.57L10.22,45a2.56,2.56,0,0,1,1.34.8A1.74,1.74,0,0,1,11.92,47a1.86,1.86,0,0,1-.39,1.05,2.18,2.18,0,0,1-1,.66,4.12,4.12,0,0,1-1.63.17,3.75,3.75,0,0,1-1.53-.4,2.19,2.19,0,0,1-.9-0.84,1.94,1.94,0,0,1-.24-1.11,1.66,1.66,0,0,1,.49-1.1,2.22,2.22,0,0,1,1.25-.57l0.13,0.6a1.27,1.27,0,0,0-1.24,1.13,1.36,1.36,0,0,0,.17.8,1.57,1.57,0,0,0,.68.58,3.37,3.37,0,0,0,1.23.29A3,3,0,0,0,10.65,48a1.25,1.25,0,0,0,.65-1A1.17,1.17,0,0,0,11,46.12,1.89,1.89,0,0,0,10,45.57Z"/>
      <path class="cls-1" d="M6.58,43.64L6.7,43l3.62-.82L7.22,40.31l0.11-.59,3.91,2.5a4.49,4.49,0,0,1,.95.73,0.7,0.7,0,0,1,.13.6,1.64,1.64,0,0,1-.24.55L11.47,44a0.87,0.87,0,0,0,.26-0.47,0.5,0.5,0,0,0-.09-0.41,2.34,2.34,0,0,0-.71-0.49Z"/>
      <path class="cls-1" d="M7.8,38.06l0.83-2.64,4.67,1.47,0.12-.39,1.86,0.58-0.16.51-1.23-.39L13,40.07l1.24,0.39L14.06,41l-1.86-.59,0.11-.33A9.81,9.81,0,0,0,8.58,38.3Zm1.28-1.87L8.6,37.7l0.27,0.09q0.67,0.21,1.8.67a7.51,7.51,0,0,1,1.82,1l0.63-2Z"/>
      <path class="cls-1" d="M14.16,36.36L9.82,32.49l0.26-.59,5.82,0.57-0.28.63-1.75-.21-0.78,1.75,1.33,1.14Zm-1.54-2.12,0.63-1.42-1.6-.2q-0.74-.09-1.18-0.18a8.31,8.31,0,0,1,.87.66Z"/>
      <path class="cls-1" d="M16.23,31.91l-4.77-2.84,0.88-1.47a2.75,2.75,0,0,1,.55-0.71,1.2,1.2,0,0,1,.78-0.27,1.82,1.82,0,0,1,.94.29,1.88,1.88,0,0,1,.86,1,1.61,1.61,0,0,1-.27,1.38l-0.6,1,1.94,1.15ZM14,29.9l0.6-1a1.14,1.14,0,0,0,.2-0.83,1,1,0,0,0-.52-0.61,1.19,1.19,0,0,0-.55-0.18,0.71,0.71,0,0,0-.43.1,1.66,1.66,0,0,0-.41.51l-0.6,1Z"/>
      <path class="cls-1" d="M18.95,24.42l0.52-.37a2.55,2.55,0,0,1,.68,1.41,1.73,1.73,0,0,1-.38,1.25,1.86,1.86,0,0,1-.9.67,2.19,2.19,0,0,1-1.23,0,4.18,4.18,0,0,1-1.45-.75,3.75,3.75,0,0,1-1.05-1.17,2.22,2.22,0,0,1-.29-1.2,2,2,0,0,1,.41-1.06,1.67,1.67,0,0,1,1-.65,2.22,2.22,0,0,1,1.36.21l-0.22.57a1.27,1.27,0,0,0-1.66.26,1.33,1.33,0,0,0-.29.77,1.56,1.56,0,0,0,.25.87,3.39,3.39,0,0,0,.87.92,3,3,0,0,0,1.6.72,1.24,1.24,0,0,0,1.1-.5,1.18,1.18,0,0,0,.24-0.89A1.88,1.88,0,0,0,18.95,24.42Z"/>
      <path class="cls-1" d="M22.31,23.6L18.79,20.2l-1,1.08-0.47-.46,2.51-2.59,0.47,0.46-1,1.08,3.51,3.41Z"/>
      <path class="cls-1" d="M24.33,21.59l-3.53-4.28,1.32-1.09a1.76,1.76,0,0,1,.74-0.4,1.23,1.23,0,0,1,.7.07,1.48,1.48,0,0,1,.63.46,1.41,1.41,0,0,1,.31.64,1.27,1.27,0,0,1,0,.68,1.25,1.25,0,0,1,.79,0,1.54,1.54,0,0,1,.72.51,1.83,1.83,0,0,1,.4.81,1.28,1.28,0,0,1-.07.78,2.13,2.13,0,0,1-.62.74Zm-1.59-2.86,0.76-.63a2,2,0,0,0,.39-0.39A0.7,0.7,0,0,0,24,17.28a0.9,0.9,0,0,0-.23-0.47,1,1,0,0,0-.41-0.31,0.63,0.63,0,0,0-.41,0,2.18,2.18,0,0,0-.58.38l-0.7.58Zm1.63,2L25.25,20a1.65,1.65,0,0,0,.38-0.4,0.76,0.76,0,0,0,.1-0.5,1.1,1.1,0,0,0-.26-0.52A1,1,0,0,0,25,18.23a0.78,0.78,0,0,0-.47,0,1.74,1.74,0,0,0-.59.36l-0.81.67Z"/>
      <path class="cls-1" d="M27.79,18.82l-3-4.65,2.76-1.79,0.36,0.55-2.25,1.46,0.92,1.42,2.11-1.37L29,15l-2.11,1.37,1,1.58,2.34-1.52L30.63,17Z"/>
      <path class="cls-1" d="M31.48,16.49l-2.44-5,0.54-.27,1,2,2.12-1-1-2,0.54-.27,2.44,5-0.54.26L33,12.84l-2.12,1L32,16.23Z"/>
      <path class="cls-1" d="M35.77,14.47L34,9.22,34.53,9l0.74,2.15,2.24-.77L36.77,8.26l0.57-.2,1.8,5.25-0.57.2L37.72,11l-2.24.77,0.85,2.47Z"/>
      <path class="cls-1" d="M39.22,7.51l0.59-.11,0.45,2.33,1.07-.21a2.68,2.68,0,0,1,1,0,1.13,1.13,0,0,1,.66.41,1.81,1.81,0,0,1,.38.85,1.85,1.85,0,0,1-.14,1.17,1.58,1.58,0,0,1-1.23.73l-1.7.32Zm1.52,4.72L41.82,12a1.24,1.24,0,0,0,.76-0.38,1,1,0,0,0,.11-0.79,1,1,0,0,0-.26-0.53A0.69,0.69,0,0,0,42,10.11a3.43,3.43,0,0,0-.83.09l-0.79.15Zm3.72-.08-1-5.45L44,6.6,45,12Z"/>
      <path class="cls-1" d="M45.93,6.4l0.54,0,0.21,4.4,2.21-4.51,0.61,0,0.26,5.54-0.54,0L49,7.41l-2.21,4.5-0.6,0Zm2.34-1.47,0.38,0a1.18,1.18,0,0,1-.26.75,0.84,0.84,0,0,1-.61.28,0.83,0.83,0,0,1-.63-0.22A1.18,1.18,0,0,1,46.81,5L47.2,5a0.51,0.51,0,0,0,.54.49,0.54,0.54,0,0,0,.37-0.14A0.67,0.67,0,0,0,48.27,4.93Z"/>
      <path class="cls-1" d="M58.07,12.68l1.08-4.77-1.46-.33,0.14-.64,3.52,0.79-0.14.64L59.74,8l-1.08,4.77Z"/>
      <path class="cls-1" d="M60.87,13.37l1.81-5.24,3.11,1.08-0.21.62L63,8.94l-0.55,1.6,2.38,0.82L64.65,12l-2.38-.82-0.62,1.78,2.64,0.91-0.21.62Z"/>
      <path class="cls-1" d="M64.58,14.67l2.84-1.84L67.18,9.76l0.64,0.31L68,11.71a6.18,6.18,0,0,1,0,.77,7,7,0,0,1,.6-0.41L70,11.15l0.58,0.28-2.57,1.66,0.27,3.39-0.67-.32-0.18-2.28c0-.13,0-0.27,0-0.42l-0.38.28L65.23,15Z"/>
      <path class="cls-1" d="M68.91,16.82l3-4.67,0.51,0.32-1.23,1.92,2,1.27,1.22-1.92,0.51,0.32-3,4.68-0.51-.32,1.41-2.2-2-1.27-1.4,2.21Z"/>
      <path class="cls-1" d="M76.41,15.16l0.42,0.35L74,18.9l4.67-1.85,0.47,0.39-3.54,4.27-0.42-.35L78,18l-4.67,1.84-0.46-.38Z"/>
      <path class="cls-1" d="M78.69,24.85l-0.41-.44,1.62-1.54a3.53,3.53,0,0,1-1.24-.77,1.37,1.37,0,0,1-.38-0.78,1.3,1.3,0,0,1,.15-0.82,3.87,3.87,0,0,1,.71-0.86l1.18-1.12,0.41,0.44L79.6,20a2.1,2.1,0,0,0-.67,1,0.8,0.8,0,0,0,.24.73,3,3,0,0,0,1.17.73l2-1.86L82.71,21Z"/>
      <path class="cls-1" d="M79.44,25.73l4.43-3.34,2,2.62-0.52.39-1.62-2.14-1.35,1,1.52,2-0.52.39-1.52-2-1.51,1.14L82,28l-0.52.4Z"/>
      <path class="cls-1" d="M85.35,31.09l0.14,0.62a2.57,2.57,0,0,1-1.56.09,1.74,1.74,0,0,1-1-.82,1.84,1.84,0,0,1-.28-1.09,2.18,2.18,0,0,1,.49-1.13,4.13,4.13,0,0,1,1.25-1.06,3.74,3.74,0,0,1,1.48-.53,2.19,2.19,0,0,1,1.22.19,1.94,1.94,0,0,1,.83.78,1.67,1.67,0,0,1,.21,1.19,2.22,2.22,0,0,1-.71,1.18L87,30.08a1.27,1.27,0,0,0,.39-1.63,1.34,1.34,0,0,0-.6-0.56,1.56,1.56,0,0,0-.89-0.1,3.31,3.31,0,0,0-1.18.46,3,3,0,0,0-1.28,1.21,1.25,1.25,0,0,0,0,1.21,1.17,1.17,0,0,0,.73.56A1.9,1.9,0,0,0,85.35,31.09Z"/>
      <path class="cls-1" d="M89.44,31.21l0.24,0.55-2.22,1a0.73,0.73,0,0,0,.41.45,3.51,3.51,0,0,0,1,0,5.46,5.46,0,0,1,.88,0,1,1,0,0,1,.48.18,1.21,1.21,0,0,1,.36.5,2.23,2.23,0,0,1,.08.21l-0.59.26,0-.11L90,34.1a0.53,0.53,0,0,0-.29-0.3,2.31,2.31,0,0,0-.83,0,3.16,3.16,0,0,1-1,0,1.16,1.16,0,0,1-.43-0.23,1.84,1.84,0,0,1-.56,1.2l-1.31,1.6-0.3-.68,1.07-1.3a3.37,3.37,0,0,0,.6-0.89A0.67,0.67,0,0,0,87,33l0-.05L84.6,34l-0.24-.55Z"/>
      <path class="cls-1" d="M91.17,35.34l0.16,0.52-4.21,1.3,4.92,1,0.18,0.58-5.3,1.64-0.16-.52,4.2-1.3-4.91-1L85.87,37Z"/>
      <path class="cls-1" d="M92.65,40.51L92.74,41l-4.33.77,4.76,1.61L93.27,44l-5.46,1-0.1-.54L92,43.69l-4.75-1.62-0.11-.59Zm1.76,2.13L94.47,43a1.16,1.16,0,0,1-.78-0.16,0.85,0.85,0,0,1-.35-0.57,0.84,0.84,0,0,1,.13-0.66,1.17,1.17,0,0,1,.67-0.42l0.07,0.38a0.51,0.51,0,0,0-.41.6,0.53,0.53,0,0,0,.19.35A0.67,0.67,0,0,0,94.41,42.64Z"/>
      <path class="cls-1" d="M93.64,52.26l-0.06.6L90.05,54l3.26,1.61-0.06.6-4.13-2.12a4.53,4.53,0,0,1-1-.63,0.71,0.71,0,0,1-.19-0.59,1.64,1.64,0,0,1,.19-0.57l0.63,0.06a0.86,0.86,0,0,0-.22.49,0.5,0.5,0,0,0,.13.4,2.34,2.34,0,0,0,.75.43Z"/>
      <path class="cls-1" d="M87.62,56.33L93,57.51l-0.13.59-2.23-.48-0.5,2.31,2.22,0.48L92.29,61l-5.42-1.17L87,59.23l2.56,0.55,0.5-2.31-2.56-.55Z"/>
      <path class="cls-1" d="M91.78,62.81l-0.18.51-4.15-1.46,3.35,3.74-0.2.57-5.23-1.84,0.18-.51,4.14,1.46-3.34-3.75,0.2-.57Z"/>
      <path class="cls-1" d="M84.92,65.36l5,2.45-0.76,1.53a1.78,1.78,0,0,1-.51.67,1.26,1.26,0,0,1-.67.22,1.5,1.5,0,0,1-.76-0.16,1.42,1.42,0,0,1-.54-0.45A1.3,1.3,0,0,1,86.43,69a1.22,1.22,0,0,1-.71.34,1.51,1.51,0,0,1-.87-0.17,1.79,1.79,0,0,1-.7-0.58,1.25,1.25,0,0,1-.25-0.74,2.15,2.15,0,0,1,.26-0.92Zm0.32,0.83-0.5,1a1.65,1.65,0,0,0-.18.53,0.75,0.75,0,0,0,.12.5,1.07,1.07,0,0,0,.45.37,1,1,0,0,0,.54.12,0.77,0.77,0,0,0,.44-0.17A1.72,1.72,0,0,0,86.49,68L87,67Zm2.3,1.13-0.43.89a2,2,0,0,0-.2.52,0.7,0.7,0,0,0,.08.44,0.92,0.92,0,0,0,.4.34,1,1,0,0,0,.5.12,0.61,0.61,0,0,0,.38-0.16,2.06,2.06,0,0,0,.37-0.58l0.4-.82Z"/>
      <path class="cls-1" d="M82.9,69.31l4.66,3-1.78,2.76-0.55-.36,1.46-2.26-1.43-.92L83.9,73.66l-0.55-.35,1.36-2.12-1.59-1-1.51,2.35-0.55-.35Z"/>
      <path class="cls-1" d="M80.48,72.95l4.29,3.52-1.09,1.33a2.75,2.75,0,0,1-.65.62,1.21,1.21,0,0,1-.81.15,1.84,1.84,0,0,1-.89-0.42,1.91,1.91,0,0,1-.7-1.07,1.61,1.61,0,0,1,.47-1.32l0.74-.9L80.1,73.41Zm1.87,2.31-0.75.91a1.13,1.13,0,0,0-.32.79,1,1,0,0,0,.42.68,1.17,1.17,0,0,0,.52.26,0.72,0.72,0,0,0,.44,0,1.66,1.66,0,0,0,.48-0.45l0.74-.9Z"/>
      <path class="cls-1" d="M76.65,80l-0.57.29a2.57,2.57,0,0,1-.46-1.49,1.73,1.73,0,0,1,.56-1.18,1.85,1.85,0,0,1,1-.52,2.17,2.17,0,0,1,1.21.21,4.16,4.16,0,0,1,1.32,1,3.75,3.75,0,0,1,.87,1.32,2.18,2.18,0,0,1,.11,1.23,1.92,1.92,0,0,1-.56,1,1.67,1.67,0,0,1-1.1.49,2.22,2.22,0,0,1-1.31-.41L78,81.3a1.27,1.27,0,0,0,1.68,0,1.35,1.35,0,0,0,.41-0.71A1.56,1.56,0,0,0,80,79.69a3.33,3.33,0,0,0-.72-1,3,3,0,0,0-1.47-1,1.25,1.25,0,0,0-1.17.33,1.18,1.18,0,0,0-.37.84A1.89,1.89,0,0,0,76.65,80Z"/>
      <path class="cls-1" d="M77.5,84l-0.44.33-2.64-3.53,0.7,5-0.48.36-3.32-4.44,0.44-.33,2.63,3.52-0.69-5,0.48-.36Z"/>
      <path class="cls-1" d="M69.34,82.89l2.46,4.23,1.29-.75,0.33,0.57-3.12,1.81L70,88.17l1.3-.76-2.46-4.23Z"/>
      <path class="cls-1" d="M66.82,84.29l2.24,5.07-3,1.33-0.27-.6L68.25,89l-0.68-1.55-2.3,1L65,87.88l2.3-1-0.76-1.73L64,86.26l-0.27-.6Z"/>
      <path class="cls-1" d="M61.66,86.35L63.13,91l1.43-.45,0.2,0.63-3.44,1.08-0.2-.62,1.44-.45-1.47-4.67Z"/>
    </g>
    <circle class="cls-1" cx="50" cy="92" r="2"/>
    <g>
      <path class="cls-1" d="M39.07,37a16.94,16.94,0,0,1,21.86,0h5.54a21,21,0,0,0-32.94,0h5.54Z"/>
      <path class="cls-1" d="M60.93,63a16.94,16.94,0,0,1-21.86,0H33.53a21,21,0,0,0,32.94,0H60.93Z"/>
    </g>
    <g>
      <path class="cls-1" d="M20.68,37h9.15a24,24,0,0,1,40.34,0h9.15a15.9,15.9,0,0,0,3-3.28l-2-3.44a20.2,20.2,0,0,0-7.24,2.17q-0.81-1.06-1.72-2a20,20,0,0,0,3.4-6.7l-3.06-2.55a20.08,20.08,0,0,0-6,4.48q-1.13-.72-2.33-1.34a19.86,19.86,0,0,0,.88-7.43l-3.75-1.36a20,20,0,0,0-4.13,6.25q-1.31-.29-2.65-0.47A19.86,19.86,0,0,0,52,14H48a19.85,19.85,0,0,0-1.73,7.27q-1.35.17-2.65,0.46a19.94,19.94,0,0,0-4.13-6.25l-3.75,1.36a19.85,19.85,0,0,0,.88,7.43q-1.2.62-2.33,1.34a20.07,20.07,0,0,0-6-4.48L25.2,23.7a19.94,19.94,0,0,0,3.4,6.7h0l0,0q-0.85.92-1.61,1.92l-0.05.06a20.19,20.19,0,0,0-7.23-2.16l-2,3.44A15.91,15.91,0,0,0,20.68,37Z"/>
      <path class="cls-1" d="M79.32,63H70.17a24,24,0,0,1-40.34,0H20.68a15.91,15.91,0,0,0-3,3.28l2,3.44a20.18,20.18,0,0,0,7.23-2.16H27q0.76,1,1.59,1.88l0,0.15a20,20,0,0,0-3.4,6.71l3.06,2.55a20.09,20.09,0,0,0,6.05-4.49l0.16-.06q1,0.66,2.14,1.22l0,0.16a19.88,19.88,0,0,0-.89,7.46l3.75,1.36a20,20,0,0,0,4.14-6.28l0.13-.12q1.23,0.27,2.5.43A20.07,20.07,0,0,0,48,86h4a20.07,20.07,0,0,0,1.74-7.46q1.3-.17,2.57-0.45a20.15,20.15,0,0,0,4.2,6.41l3.75-1.36a20,20,0,0,0-.92-7.59q1.16-.6,2.26-1.3a20.26,20.26,0,0,0,6.14,4.59L74.8,76.3a20.1,20.1,0,0,0-3.47-6.81q0.89-1,1.69-2a20.33,20.33,0,0,0,7.34,2.21l2-3.44A15.9,15.9,0,0,0,79.32,63Z"/>
    </g>
    <path class="cls-1" d="M50,0a50,50,0,1,0,50,50A50,50,0,0,0,50,0Zm0,96A46,46,0,1,1,96,50,46.05,46.05,0,0,1,50,96Z"/>
    <g>
      <path class="cls-1" d="M21,48h3c2.69,0,4.68.45,6,1.48a5.73,5.73,0,0,1,1.95,4.79,5.14,5.14,0,0,1-1.79,4.2A8.07,8.07,0,0,1,25,60H16V40H31v4H21v4Zm0,8h2.9c1.72,0,2.58-.77,2.58-2.12,0-1.19-.86-1.88-2.58-1.88H21v4Z"/>
      <path class="cls-1" d="M49,45H40V60H35V40H49v5Z"/>
      <path class="cls-1" d="M50,40H67v5H61V60H56V45H50V40Z"/>
      <path class="cls-1" d="M67.59,40h6L76,48l2.43-8H84L78.17,55.15A22.26,22.26,0,0,1,76.93,58a4.17,4.17,0,0,1-1.58,1.52A6.38,6.38,0,0,1,72.4,60a29.64,29.64,0,0,1-3.4-.21v-4c1,0.11,1.68.16,2.11,0.16a2.27,2.27,0,0,0,2.35-1.74Z"/>
    </g>
  </g>
</svg>
